<svg xmlns="http://www.w3.org/2000/svg" width="355.883" height="88.297" viewBox="0 0 355.883 88.297"><g id="_2432892080000" transform="translate(0 0)"><path id="Caminho_1" data-name="Caminho 1" d="M6035.329,3780.8v31.325c0,3.13,2.28,5.56,4.634,5.56h10.194a5.263,5.263,0,0,0,4.528-3.812c.307-1.147.106-23.014.106-25.288,0-5.53-.411-11.73,1.3-15.57,3.845-8.639,15.9-7.325,19.466-2.6a12.9,12.9,0,0,1,1.6,2.658c1.771,3.778,1.355,10.03,1.355,15.511,0,2.4-.185,23.793.1,25.11.4,1.876,2.4,3.99,4.534,3.99h10.194c2.465,0,4.635-2.622,4.635-5.189V3779.5c0-8.767-2.439-16.559-8.2-22.383l-1.992-1.717c-10.784-8.266-31.142-8.228-42.24.028C6037.823,3761.174,6035.329,3771.231,6035.329,3780.8Z" transform="translate(-5798.817 -3730.75)" fill="#fe5000" fill-rule="evenodd"></path><path id="Caminho_2" data-name="Caminho 2" d="M26.91,3866.405v.926a6.282,6.282,0,0,0,5.931,5.931h7.97c4.4,0,5.691-4.375,7.046-7.411l11.3-25.025a4.778,4.778,0,0,1,8.777-.438l7.907,17.487c.374.832.751,1.662,1.173,2.535l2.293,5.121c3.842,8.925,4.063,7.731,15.252,7.731,3.163,0,5.931-3.1,5.931-6.3,0-2.02-.714-2.917-1.271-4.291-.536-1.319-1.186-2.5-1.748-3.812l-6.929-15.314c-.317-.68-.569-1.259-.856-1.924l-9.524-21.06c-1.058-2.271-3.96-9.661-5.477-11.2a5.977,5.977,0,0,0-3.851-1.9H56.567a5.91,5.91,0,0,0-3.665,1.711c-1.926,1.9-2.64,4.8-3.873,7.248-2.606,5.167-6.036,13.977-8.649,19.155-.635,1.258-1.064,2.412-1.669,3.706l-1.727,3.834c-1.25,2.582-2.242,5.042-3.461,7.659l-5.19,11.491A10.2,10.2,0,0,0,26.91,3866.405Z" transform="translate(-26.91 -3786.701)" fill="#fe5000" fill-rule="evenodd"></path><path id="Caminho_3" data-name="Caminho 3" d="M4123.56,3866.4a6.507,6.507,0,0,0,1.707,4.966,6.425,6.425,0,0,0,3.854,1.892h8.341c4.871,0,6.066-5.616,8.158-9.821l5.69-12.659c.741-1.732,1.592-3.351,2.332-5.083,1.548-3.621,2.75-8.024,6.62-8.024,4.172,0,5.2,4.739,7.167,8.958l8.526,18.907c.413.816.726,1.579,1.114,2.409.873,1.878,2.277,5.314,5.806,5.314h8.34c3.124,0,5.932-3.06,5.932-6.486a10.564,10.564,0,0,0-1.35-4.21l-6.929-15.314c-2.829-6.066-5.843-13.311-8.649-19.154-.635-1.322-1.076-2.531-1.731-3.831-1.472-2.917-5.542-13.373-7.236-15a6.373,6.373,0,0,0-3.761-1.8h-14.272a5.524,5.524,0,0,0-2.041.555c-2.131.939-2.929,2.776-3.767,4.574l-18.976,42.006c-.562,1.313-1.214,2.494-1.748,3.813C4125.916,3860.3,4123.56,3864.5,4123.56,3866.4Z" transform="translate(-3962.301 -3786.7)" fill="#fe5000" fill-rule="evenodd"></path><path id="Caminho_4" data-name="Caminho 4" d="M7675.657,3772.466c0,23.824,34.847,18.885,34.847,27.99,0,4.808-5.758,4.632-9.269,4.632-4.082,0-9.4-1.821-12.789-3.521-2.414-1.209-5.6-3.593-7.564-2.942a4.473,4.473,0,0,0-1.664,1.129c-1.442,1.551-5.23,7.049-5.23,8.672,0,3.793,1.681,4.2,4.485,5.9a49.916,49.916,0,0,0,22.207,6.151c7.743,0,14.364-.692,20.6-5.347a19.413,19.413,0,0,0,7.574-15.412c0-4.177-.339-7.527-2.752-10.78-3.05-4.112-6.488-6.06-11.156-8.12-3.447-1.523-7.451-2.708-11.231-3.967-2.615-.873-9.524-2.992-9.524-5.861v-.927c0-2.683,3.535-3.892,6.3-3.892a29.4,29.4,0,0,1,9.614,1.88c1.354.505,2.684,1.107,4.049,1.7,5.785,2.49,5.933,2.419,10.369-5.678,1.156-2.108,2.026-4.51-.068-6.66-1.989-2.042-5.861-3.213-8.649-4.141a53.477,53.477,0,0,0-6.8-1.724,34.432,34.432,0,0,0-22.1,2.518A19.955,19.955,0,0,0,7675.657,3772.466Z" transform="translate(-7372.972 -3732.244)" fill="#fe5000" fill-rule="evenodd"></path><path id="Caminho_5" data-name="Caminho 5" d="M2569.659,3785.142a34.333,34.333,0,0,0,25.884,34.542c7.832,2.08,17.887,1.224,25.027-2.352,3.545-1.775,8.773-4.648,8.773-9.021,0-3.046-1.637-4.51-3.2-6.07-2.184-2.185-3.036-3.939-6.256-3.939-1.436,0-2.414,1.036-3.307,1.7-11.671,8.617-27.647,2.263-27.647-14.3,0-9.038,6.382-17.61,15.2-17.61,10.76,0,11.185,5.562,15.57,5.562,2.53,0,4.124-2.753,5.514-4.126.891-.881,1.48-1.58,2.316-2.5a6.6,6.6,0,0,0,.2-8.074c-1.311-1.8-5.854-4.3-8-5.159a39.433,39.433,0,0,0-32.16,1.447,33.362,33.362,0,0,0-7.581,5.579,31.81,31.81,0,0,0-7.157,10.081,37.956,37.956,0,0,0-2.214,6.5A34.34,34.34,0,0,0,2569.659,3785.142Z" transform="translate(-2469.568 -3732.502)" fill="#fe5000" fill-rule="evenodd"></path><path id="Caminho_6" data-name="Caminho 6" d="M1957.52,3284.528v77.664a4.774,4.774,0,0,0,4.263,4.448h11.677c2.286,0,4.448-2.308,4.448-5v-76.181a5.327,5.327,0,0,0-1.163-3.655,4.536,4.536,0,0,0-3.285-1.72h-11.492A4.86,4.86,0,0,0,1957.52,3284.528Z" transform="translate(-1881.524 -3280.08)" fill="#fe5000" fill-rule="evenodd"></path></g></svg>