<?xml version="1.0" encoding="UTF-8"?>
<svg id="Camada_2" xmlns="http://www.w3.org/2000/svg" viewBox="0 0 141.74 138.43">
  <defs>
    <style>
      .cls-1 {
        fill: #c51e30;
      }

      .cls-2 {
        fill: #fff;
      }
    </style>
  </defs>
  <g id="LOGO_SANTOS_GAMES">
    <g>
      <polygon class="cls-1" points="141.74 67.2 141.03 66.49 122.87 52.44 122.34 51.11 113.91 43.85 115.01 38.58 115.01 38.58 118.52 23.19 113.35 15.38 109.99 20.51 108.14 11.83 106.18 21.47 104.12 13.25 101.28 6.31 99.31 9.77 91.1 5.68 75.49 1.74 75.49 1.74 75.49 1.74 75.49 1.74 75.49 1.74 78.87 6.91 74.07 4.57 50.64 0 50.64 0 50.64 0 57.85 10.74 34.31 11.6 38.85 15.95 27.92 24.37 34.77 27.31 15.14 35.73 15.14 35.73 15.14 35.73 15.14 35.73 15.14 35.73 25.2 37.86 23.86 41.88 7.34 53.01 17.51 53.48 3.55 74.78 13.49 73.59 0 94.89 13.49 92.76 21.38 90.63 20.11 111.22 31.24 104.59 27.92 125.89 49.46 104.12 44.2 135.75 63.3 122.34 70.75 118.32 78.33 109.8 78.33 109.82 78.22 109.97 78.69 115.65 79.02 115.82 90.63 133.7 98.44 138.43 111.93 126.13 115.31 126.8 115.48 127.23 118.52 111.75 118.48 111.55 118.52 111.35 118.85 110.81 123.05 106.72 123.76 110.27 126.95 105.5 127.24 103.68 128.02 107.43 128.26 109.56 132.91 103.46 134.41 95.31 133.67 92.1 135.59 90.63 136.85 85.19 138.67 80.93 137.72 75.49 141.74 67.2"/>
      <g>
        <polygon class="cls-2" points="134.88 81.17 134.41 87.32 135.59 90.63 136.85 85.19 138.67 80.93 137.72 75.49 134.88 81.17"/>
        <polygon class="cls-2" points="105.07 24.37 112.4 37.15 111.69 29.11 116.42 23.9 114.53 40.7 118.52 23.19 113.35 15.38 110.27 21.85 108.14 11.83 106.96 24.61 104.12 13.25 101.28 6.31 99.64 9.94 91.1 5.68 75.49 1.74 102.35 16.64 105.07 24.37"/>
        <polygon class="cls-2" points="72.41 35.26 57.74 22.72 51.35 29.11 54.9 42.12 66.42 52.44 70.04 45.91 60.58 43.07 65.31 41.41 61.05 37.82 70.83 39.64 66.73 34.79 62.24 33.13 68.39 33.6 72.41 35.26"/>
        <polygon class="cls-2" points="34.68 64.36 25.16 66.26 43.07 46.85 44.2 32.18 20.11 58.45 17.27 85.66 20.53 89.69 27.45 79.27 21.17 75.49 28.4 77.62 34.68 64.36"/>
        <path class="cls-2" d="M113.82,113.82l-16.09-22.14-1.88,1.21,7.09,10.52s-2.84,22.24-3.08,22.48l1.42-21.3-7.57-10.32-.27.17-.92,15.12,2.93,8.78c.09.23.15.39.15.45l-.15-.45c-.75-1.87-4.11-8.78-4.11-8.78v-13.76l-4.12,2.66-.47,1.85,1.52,9.49,1.66,8.05-2.13-7.81-1.66-9.7.1-1.25-.1.07-7.92,10.82.47,5.68,13.15,6.69,6.6,16.09,9.7-14.67.47-13.67,6.86,17.15,3.04-15.49-1.14-5.97-3.55,8.05Z"/>
        <path class="cls-2" d="M141.03,66.49l-18.17-14.05-.53-1.33-15.85-13.65-11.6-6.23h-7.84l-4.46-5.68-2.13-6.63,14.67,4.73,9.94,10.65-2.13-8.99-7.57-10.41-21.3-10.33L50.64,0l18.69,5.92,24.37,12.78-26.98-8.28-32.42,1.18,32.66,1.89L15.14,35.73l16.8,2.13,25.56-17.04,12.07-.47,3.31,5.21,19.06,11.91-.95.92-8.41-1.94-5.92-4.26,5.92,6.86,8.41-.66-4.25,4.1-8.89.58-28.63,33.13,7.57-20.11-9.7-14.2-8.76,29.58-7.1,33.13,22.43-29.11-2.1,15.14,3.58,4.97,8.16,26.74,14.08-18.69,5.21-16.09-9.78-12.07.32-3.31-3.55,4.02-6.27,17.67,4.61-18.85,6.15-8.05-2.6-8.28,7.57-8.76h3.23l-3.21,4.03h-.02s-3.55,4.49-3.55,4.49l3.79,18.46,16.85,9.42h0s-4.07,2.77-4.07,2.77l-7.57-4.38-.47,9.7-7.1,12.07,12.07-13.25,9.45-5.74h0s4.51,2.12,4.51,2.12l1.01-.52,8.05-2.25-5.57,2.84-2.29,3.52,2.6-1.87,1.37-.71,5.5-2.37,6.39-1.42-1.46,2.25,14-3.43-.95-8.28-3.34-2.52-3.32-2.53-4.93-7.97,8.99,4.73,11.6.24-2.84,6.15,4.02-8.28-.71-.71ZM106.49,43.3s-.71,4.26-.71,4.5l-2.13-1.1-1.54-7.06,4.38,3.67ZM99.62,83.77l-7.1-2.37,6.63.24,10.65-20.11-3.31-3.79-6.86.71-6.44-4.5-5.39-.47,1.16-.43,9.31-7.5,11.83,4.5v1.66l-1.42.95-.78-.62,1.2,2.39,7.34,4.73-16.8,24.61Z"/>
        <polygon class="cls-2" points="133.34 88.02 117.05 92.05 106.47 94.83 103.24 94.86 101.54 94.16 103.26 95.41 106.24 98.25 107.13 99.14 110.44 102.14 112.07 103.02 111.53 103.23 112.33 103.87 115.27 105.79 117.7 104.79 118.96 109.96 123.33 105.59 124.12 109.19 126.68 105.71 127.42 102.52 128.68 108.6 132.36 103.6 133.72 96.02 132.8 91.76 133.34 88.02"/>
      </g>
    </g>
  </g>
</svg>